# Wavefront OBJ file automatically generated by Tiled2Unity

# Vertices (Count = 224)
v 0 -1 0
v -1 -1 0
v -1 0 0
v 0 0 0
v -2 -1 0
v -2 0 0
v -3 -1 0
v -3 0 0
v -4 -1 0
v -4 0 0
v -5 -1 0
v -5 0 0
v -6 -1 0
v -6 0 0
v -7 -1 0
v -7 0 0
v -8 -1 0
v -8 0 0
v -9 -1 0
v -9 0 0
v -10 -1 0
v -10 0 0
v -11 -1 0
v -11 0 0
v -12 -1 0
v -12 0 0
v -13 -1 0
v -13 0 0
v -14 -1 0
v -14 0 0
v -15 -1 0
v -15 0 0
v 0 -2 0
v -1 -2 0
v -2 -2 0
v -3 -2 0
v -4 -2 0
v -5 -2 0
v -6 -2 0
v -7 -2 0
v -8 -2 0
v -9 -2 0
v -10 -2 0
v -11 -2 0
v -12 -2 0
v -13 -2 0
v -14 -2 0
v -15 -2 0
v 0 -3 0
v -1 -3 0
v -2 -3 0
v -3 -3 0
v -4 -3 0
v -5 -3 0
v -6 -3 0
v -7 -3 0
v -8 -3 0
v -9 -3 0
v -10 -3 0
v -11 -3 0
v -12 -3 0
v -13 -3 0
v -14 -3 0
v -15 -3 0
v 0 -4 0
v -1 -4 0
v -2 -4 0
v -3 -4 0
v -4 -4 0
v -5 -4 0
v -6 -4 0
v -7 -4 0
v -8 -4 0
v -9 -4 0
v -10 -4 0
v -11 -4 0
v -12 -4 0
v -13 -4 0
v -14 -4 0
v -15 -4 0
v 0 -5 0
v -1 -5 0
v -2 -5 0
v -3 -5 0
v -4 -5 0
v -5 -5 0
v -6 -5 0
v -7 -5 0
v -8 -5 0
v -9 -5 0
v -10 -5 0
v -11 -5 0
v -12 -5 0
v -13 -5 0
v -14 -5 0
v -15 -5 0
v 0 -6 0
v -1 -6 0
v -2 -6 0
v -3 -6 0
v -4 -6 0
v -5 -6 0
v -6 -6 0
v -7 -6 0
v -8 -6 0
v -9 -6 0
v -10 -6 0
v -11 -6 0
v -12 -6 0
v -13 -6 0
v -14 -6 0
v -15 -6 0
v 0 -7 0
v -1 -7 0
v -2 -7 0
v -3 -7 0
v -4 -7 0
v -5 -7 0
v -6 -7 0
v -7 -7 0
v -8 -7 0
v -9 -7 0
v -10 -7 0
v -11 -7 0
v -12 -7 0
v -13 -7 0
v -14 -7 0
v -15 -7 0
v 0 -8 0
v -1 -8 0
v -2 -8 0
v -3 -8 0
v -4 -8 0
v -5 -8 0
v -6 -8 0
v -7 -8 0
v -8 -8 0
v -9 -8 0
v -10 -8 0
v -11 -8 0
v -12 -8 0
v -13 -8 0
v -14 -8 0
v -15 -8 0
v 0 -9 0
v -1 -9 0
v -2 -9 0
v -3 -9 0
v -4 -9 0
v -5 -9 0
v -6 -9 0
v -7 -9 0
v -8 -9 0
v -9 -9 0
v -10 -9 0
v -11 -9 0
v -12 -9 0
v -13 -9 0
v -14 -9 0
v -15 -9 0
v 0 -10 0
v -1 -10 0
v -2 -10 0
v -3 -10 0
v -4 -10 0
v -5 -10 0
v -6 -10 0
v -7 -10 0
v -8 -10 0
v -9 -10 0
v -10 -10 0
v -11 -10 0
v -12 -10 0
v -13 -10 0
v -14 -10 0
v -15 -10 0
v 0 -11 0
v -1 -11 0
v -2 -11 0
v -3 -11 0
v -4 -11 0
v -5 -11 0
v -6 -11 0
v -7 -11 0
v -8 -11 0
v -9 -11 0
v -10 -11 0
v -11 -11 0
v -12 -11 0
v -13 -11 0
v -14 -11 0
v -15 -11 0
v 0 -12 0
v -1 -12 0
v -14 -12 0
v -15 -12 0
v 0 -13 0
v -1 -13 0
v -2 -13 0
v -2 -12 0
v -3 -13 0
v -3 -12 0
v -4 -13 0
v -4 -12 0
v -5 -13 0
v -5 -12 0
v -6 -13 0
v -6 -12 0
v -7 -13 0
v -7 -12 0
v -8 -13 0
v -8 -12 0
v -9 -13 0
v -9 -12 0
v -10 -13 0
v -10 -12 0
v -11 -13 0
v -11 -12 0
v -12 -13 0
v -12 -12 0
v -13 -13 0
v -13 -12 0
v -14 -13 0
v -15 -13 0

# Texture cooridinates (Count = 68)
vt 0.07143729 0.4285889
vt 0.1428484 0.4285889
vt 0.1428484 0.5714111
vt 0.07143729 0.5714111
vt 0.07143729 0.2857317
vt 0.1428484 0.2857317
vt 0.1428484 0.428554
vt 0.07143729 0.428554
vt 8.719308E-06 0.7143031
vt 0.07141985 0.7143031
vt 0.07141985 0.8571254
vt 8.719308E-06 0.8571254
vt 0.07143729 0.7143031
vt 0.1428484 0.7143031
vt 0.1428484 0.8571254
vt 0.07143729 0.8571254
vt 0.1428659 0.7143031
vt 0.214277 0.7143031
vt 0.214277 0.8571254
vt 0.1428659 0.8571254
vt 8.719308E-06 0.8571603
vt 0.07141985 0.8571603
vt 0.07141985 0.9999825
vt 8.719308E-06 0.9999825
vt 0.07143729 0.8571603
vt 0.1428484 0.8571603
vt 0.1428484 0.9999825
vt 0.07143729 0.9999825
vt 0.1428659 0.8571603
vt 0.214277 0.8571603
vt 0.214277 0.9999825
vt 0.1428659 0.9999825
vt 8.719308E-06 0.571446
vt 0.07141985 0.571446
vt 0.07141985 0.7142683
vt 8.719308E-06 0.7142683
vt 0.07143729 0.571446
vt 0.1428484 0.571446
vt 0.1428484 0.7142683
vt 0.07143729 0.7142683
vt 0.1428659 0.571446
vt 0.214277 0.571446
vt 0.214277 0.7142683
vt 0.1428659 0.7142683
vt 0.9285802 0.8571603
vt 0.9999913 0.8571603
vt 0.9999913 0.9999825
vt 0.9285802 0.9999825
vt 0.9285802 0.7143031
vt 0.9999913 0.7143031
vt 0.9999913 0.8571254
vt 0.9285802 0.8571254
vt 0.785723 0.2857317
vt 0.8571342 0.2857317
vt 0.8571342 0.428554
vt 0.785723 0.428554
vt 0.4285801 1.746416E-05
vt 0.4999913 1.746416E-05
vt 0.4999913 0.1428397
vt 0.4285801 0.1428397
vt 0.785723 0.1428746
vt 0.8571342 0.1428746
vt 0.8571342 0.2856969
vt 0.785723 0.2856969
vt 0.785723 1.746416E-05
vt 0.8571342 1.746416E-05
vt 0.8571342 0.1428397
vt 0.785723 0.1428397

# Normal
vn 0 0 -1

# Groups (Count = 4)

g mesh_0001
f 1/1/1 2/2/1 3/3/1 4/4/1
f 2/1/1 5/2/1 6/3/1 3/4/1
f 5/1/1 7/2/1 8/3/1 6/4/1
f 7/1/1 9/2/1 10/3/1 8/4/1
f 9/1/1 11/2/1 12/3/1 10/4/1
f 11/1/1 13/2/1 14/3/1 12/4/1
f 13/1/1 15/2/1 16/3/1 14/4/1
f 15/1/1 17/2/1 18/3/1 16/4/1
f 17/1/1 19/2/1 20/3/1 18/4/1
f 19/1/1 21/2/1 22/3/1 20/4/1
f 21/1/1 23/2/1 24/3/1 22/4/1
f 23/1/1 25/2/1 26/3/1 24/4/1
f 25/1/1 27/2/1 28/3/1 26/4/1
f 27/1/1 29/2/1 30/3/1 28/4/1
f 29/1/1 31/2/1 32/3/1 30/4/1
f 33/5/1 34/6/1 2/7/1 1/8/1
f 34/5/1 35/6/1 5/7/1 2/8/1
f 35/5/1 36/6/1 7/7/1 5/8/1
f 36/5/1 37/6/1 9/7/1 7/8/1
f 37/5/1 38/6/1 11/7/1 9/8/1
f 38/5/1 39/6/1 13/7/1 11/8/1
f 39/5/1 40/6/1 15/7/1 13/8/1
f 40/5/1 41/6/1 17/7/1 15/8/1
f 41/5/1 42/6/1 19/7/1 17/8/1
f 42/5/1 43/6/1 21/7/1 19/8/1
f 43/5/1 44/6/1 23/7/1 21/8/1
f 44/5/1 45/6/1 25/7/1 23/8/1
f 45/5/1 46/6/1 27/7/1 25/8/1
f 46/5/1 47/6/1 29/7/1 27/8/1
f 47/5/1 48/6/1 31/7/1 29/8/1
f 49/5/1 50/6/1 34/7/1 33/8/1
f 50/5/1 51/6/1 35/7/1 34/8/1
f 51/5/1 52/6/1 36/7/1 35/8/1
f 52/5/1 53/6/1 37/7/1 36/8/1
f 53/5/1 54/6/1 38/7/1 37/8/1
f 54/5/1 55/6/1 39/7/1 38/8/1
f 55/5/1 56/6/1 40/7/1 39/8/1
f 56/5/1 57/6/1 41/7/1 40/8/1
f 57/5/1 58/6/1 42/7/1 41/8/1
f 58/5/1 59/6/1 43/7/1 42/8/1
f 59/5/1 60/6/1 44/7/1 43/8/1
f 60/5/1 61/6/1 45/7/1 44/8/1
f 61/5/1 62/6/1 46/7/1 45/8/1
f 62/5/1 63/6/1 47/7/1 46/8/1
f 63/5/1 64/6/1 48/7/1 47/8/1
f 65/9/1 66/10/1 50/11/1 49/12/1
f 66/13/1 67/14/1 51/15/1 50/16/1
f 67/13/1 68/14/1 52/15/1 51/16/1
f 68/13/1 69/14/1 53/15/1 52/16/1
f 69/13/1 70/14/1 54/15/1 53/16/1
f 70/13/1 71/14/1 55/15/1 54/16/1
f 71/13/1 72/14/1 56/15/1 55/16/1
f 72/13/1 73/14/1 57/15/1 56/16/1
f 73/13/1 74/14/1 58/15/1 57/16/1
f 74/13/1 75/14/1 59/15/1 58/16/1
f 75/13/1 76/14/1 60/15/1 59/16/1
f 76/13/1 77/14/1 61/15/1 60/16/1
f 77/13/1 78/14/1 62/15/1 61/16/1
f 78/13/1 79/14/1 63/15/1 62/16/1
f 79/17/1 80/18/1 64/19/1 63/20/1
f 81/21/1 82/22/1 66/23/1 65/24/1
f 82/25/1 83/26/1 67/27/1 66/28/1
f 83/25/1 84/26/1 68/27/1 67/28/1
f 84/25/1 85/26/1 69/27/1 68/28/1
f 85/25/1 86/26/1 70/27/1 69/28/1
f 86/25/1 87/26/1 71/27/1 70/28/1
f 87/25/1 88/26/1 72/27/1 71/28/1
f 88/25/1 89/26/1 73/27/1 72/28/1
f 89/25/1 90/26/1 74/27/1 73/28/1
f 90/25/1 91/26/1 75/27/1 74/28/1
f 91/25/1 92/26/1 76/27/1 75/28/1
f 92/25/1 93/26/1 77/27/1 76/28/1
f 93/25/1 94/26/1 78/27/1 77/28/1
f 94/25/1 95/26/1 79/27/1 78/28/1
f 95/29/1 96/30/1 80/31/1 79/32/1
f 97/21/1 98/22/1 82/23/1 81/24/1
f 98/25/1 99/26/1 83/27/1 82/28/1
f 99/25/1 100/26/1 84/27/1 83/28/1
f 100/25/1 101/26/1 85/27/1 84/28/1
f 101/25/1 102/26/1 86/27/1 85/28/1
f 102/25/1 103/26/1 87/27/1 86/28/1
f 103/25/1 104/26/1 88/27/1 87/28/1
f 104/25/1 105/26/1 89/27/1 88/28/1
f 105/25/1 106/26/1 90/27/1 89/28/1
f 106/25/1 107/26/1 91/27/1 90/28/1
f 107/25/1 108/26/1 92/27/1 91/28/1
f 108/25/1 109/26/1 93/27/1 92/28/1
f 109/25/1 110/26/1 94/27/1 93/28/1
f 110/25/1 111/26/1 95/27/1 94/28/1
f 111/29/1 112/30/1 96/31/1 95/32/1
f 113/21/1 114/22/1 98/23/1 97/24/1
f 114/25/1 115/26/1 99/27/1 98/28/1
f 115/25/1 116/26/1 100/27/1 99/28/1
f 116/25/1 117/26/1 101/27/1 100/28/1
f 117/25/1 118/26/1 102/27/1 101/28/1
f 118/25/1 119/26/1 103/27/1 102/28/1
f 119/25/1 120/26/1 104/27/1 103/28/1
f 120/25/1 121/26/1 105/27/1 104/28/1
f 121/25/1 122/26/1 106/27/1 105/28/1
f 122/25/1 123/26/1 107/27/1 106/28/1
f 123/25/1 124/26/1 108/27/1 107/28/1
f 124/25/1 125/26/1 109/27/1 108/28/1
f 125/25/1 126/26/1 110/27/1 109/28/1
f 126/25/1 127/26/1 111/27/1 110/28/1
f 127/29/1 128/30/1 112/31/1 111/32/1
f 129/21/1 130/22/1 114/23/1 113/24/1
f 130/25/1 131/26/1 115/27/1 114/28/1
f 131/25/1 132/26/1 116/27/1 115/28/1
f 132/25/1 133/26/1 117/27/1 116/28/1
f 133/25/1 134/26/1 118/27/1 117/28/1
f 134/25/1 135/26/1 119/27/1 118/28/1
f 135/25/1 136/26/1 120/27/1 119/28/1
f 136/25/1 137/26/1 121/27/1 120/28/1
f 137/25/1 138/26/1 122/27/1 121/28/1
f 138/25/1 139/26/1 123/27/1 122/28/1
f 139/25/1 140/26/1 124/27/1 123/28/1
f 140/25/1 141/26/1 125/27/1 124/28/1
f 141/25/1 142/26/1 126/27/1 125/28/1
f 142/25/1 143/26/1 127/27/1 126/28/1
f 143/29/1 144/30/1 128/31/1 127/32/1
f 145/21/1 146/22/1 130/23/1 129/24/1
f 146/25/1 147/26/1 131/27/1 130/28/1
f 147/25/1 148/26/1 132/27/1 131/28/1
f 148/25/1 149/26/1 133/27/1 132/28/1
f 149/25/1 150/26/1 134/27/1 133/28/1
f 150/25/1 151/26/1 135/27/1 134/28/1
f 151/25/1 152/26/1 136/27/1 135/28/1
f 152/25/1 153/26/1 137/27/1 136/28/1
f 153/25/1 154/26/1 138/27/1 137/28/1
f 154/25/1 155/26/1 139/27/1 138/28/1
f 155/25/1 156/26/1 140/27/1 139/28/1
f 156/25/1 157/26/1 141/27/1 140/28/1
f 157/25/1 158/26/1 142/27/1 141/28/1
f 158/25/1 159/26/1 143/27/1 142/28/1
f 159/29/1 160/30/1 144/31/1 143/32/1
f 161/21/1 162/22/1 146/23/1 145/24/1
f 162/25/1 163/26/1 147/27/1 146/28/1
f 163/25/1 164/26/1 148/27/1 147/28/1
f 164/25/1 165/26/1 149/27/1 148/28/1
f 165/25/1 166/26/1 150/27/1 149/28/1
f 166/25/1 167/26/1 151/27/1 150/28/1
f 167/25/1 168/26/1 152/27/1 151/28/1
f 168/25/1 169/26/1 153/27/1 152/28/1
f 169/25/1 170/26/1 154/27/1 153/28/1
f 170/25/1 171/26/1 155/27/1 154/28/1
f 171/25/1 172/26/1 156/27/1 155/28/1
f 172/25/1 173/26/1 157/27/1 156/28/1
f 173/25/1 174/26/1 158/27/1 157/28/1
f 174/25/1 175/26/1 159/27/1 158/28/1
f 175/29/1 176/30/1 160/31/1 159/32/1
f 177/21/1 178/22/1 162/23/1 161/24/1
f 178/25/1 179/26/1 163/27/1 162/28/1
f 179/25/1 180/26/1 164/27/1 163/28/1
f 180/25/1 181/26/1 165/27/1 164/28/1
f 181/25/1 182/26/1 166/27/1 165/28/1
f 182/25/1 183/26/1 167/27/1 166/28/1
f 183/25/1 184/26/1 168/27/1 167/28/1
f 184/25/1 185/26/1 169/27/1 168/28/1
f 185/25/1 186/26/1 170/27/1 169/28/1
f 186/25/1 187/26/1 171/27/1 170/28/1
f 187/25/1 188/26/1 172/27/1 171/28/1
f 188/25/1 189/26/1 173/27/1 172/28/1
f 189/25/1 190/26/1 174/27/1 173/28/1
f 190/25/1 191/26/1 175/27/1 174/28/1
f 191/29/1 192/30/1 176/31/1 175/32/1
f 193/9/1 194/10/1 178/11/1 177/12/1
f 195/17/1 196/18/1 192/19/1 191/20/1
f 197/33/1 198/34/1 194/35/1 193/36/1
f 198/37/1 199/38/1 200/39/1 194/40/1
f 199/37/1 201/38/1 202/39/1 200/40/1
f 201/37/1 203/38/1 204/39/1 202/40/1
f 203/37/1 205/38/1 206/39/1 204/40/1
f 205/37/1 207/38/1 208/39/1 206/40/1
f 207/37/1 209/38/1 210/39/1 208/40/1
f 209/37/1 211/38/1 212/39/1 210/40/1
f 211/37/1 213/38/1 214/39/1 212/40/1
f 213/37/1 215/38/1 216/39/1 214/40/1
f 215/37/1 217/38/1 218/39/1 216/40/1
f 217/37/1 219/38/1 220/39/1 218/40/1
f 219/37/1 221/38/1 222/39/1 220/40/1
f 221/37/1 223/38/1 195/39/1 222/40/1
f 223/41/1 224/42/1 196/43/1 195/44/1

g mesh_0002
f 171/45/1 172/46/1 156/47/1 155/48/1
f 187/49/1 188/50/1 172/51/1 171/52/1

g mesh_0003
f 194/13/1 200/14/1 179/15/1 178/16/1
f 200/13/1 202/14/1 180/15/1 179/16/1
f 202/13/1 204/14/1 181/15/1 180/16/1
f 204/13/1 206/14/1 182/15/1 181/16/1
f 206/13/1 208/14/1 183/15/1 182/16/1
f 208/13/1 210/14/1 184/15/1 183/16/1
f 210/13/1 212/14/1 185/15/1 184/16/1
f 212/13/1 214/14/1 186/15/1 185/16/1
f 214/13/1 216/14/1 187/15/1 186/16/1
f 216/13/1 218/14/1 188/15/1 187/16/1
f 218/13/1 220/14/1 189/15/1 188/16/1
f 220/13/1 222/14/1 190/15/1 189/16/1
f 222/13/1 195/14/1 191/15/1 190/16/1

g mesh_0004
f 83/53/1 84/54/1 68/55/1 67/56/1
f 86/53/1 87/54/1 71/55/1 70/56/1
f 88/57/1 89/58/1 73/59/1 72/60/1
f 90/53/1 91/54/1 75/55/1 74/56/1
f 93/53/1 94/54/1 78/55/1 77/56/1
f 99/61/1 100/62/1 84/63/1 83/64/1
f 102/61/1 103/62/1 87/63/1 86/64/1
f 106/61/1 107/62/1 91/63/1 90/64/1
f 109/61/1 110/62/1 94/63/1 93/64/1
f 115/65/1 116/66/1 100/67/1 99/68/1
f 118/65/1 119/66/1 103/67/1 102/68/1
f 122/65/1 123/66/1 107/67/1 106/68/1
f 125/65/1 126/66/1 110/67/1 109/68/1

